# AST/ASF file generated using VICON BodyLanguage
# -----------------------------------------------
:version 1.10
:name VICON
:units
  mass 1.0
  length 0.45
  angle deg
:documentation
   .ast/.asf automatically generated from VICON data using
   VICON BodyBuilder and BodyLanguage model FoxedUp or BRILLIANT.MOD
:root
   order TX TY TZ RX RY RZ
   axis XYZ
   position 0 0 0  
   orientation 0 0 0 
:bonedata
  begin
     id 1 
     name lhipjoint
     direction 0.692814 -0.645514 0.321437 
     length 2.38754 
     axis 0 0 0  XYZ
  end
  begin
     id 2 
     name lfemur
     direction 0.34202 -0.939693 0  
     length 6.41921  
     axis 0 0 20  XYZ
    dof rx ry rz
    limits (-160.0 20.0)
           (-70.0 70.0)
           (-60.0 70.0)
  end
  begin
     id 3 
     name ltibia
     direction 0.34202 -0.939693 0   
     length 6.98247   
     axis 0 0 20   XYZ
    dof rx
    limits (-10.0 170.0)
  end
  begin
     id 4 
     name lfoot
     direction 0.0947186 -0.260237 0.960888   
     length 1.83034   
     axis -90 7.62852e-016 20   XYZ
    dof rx rz
    limits (-45.0 90.0)
           (-70.0 20.0)
  end
  begin
     id 5 
     name ltoes
     direction 1.53538e-011 -4.21952e-011 1   
     length 0.920499   
     axis -90 7.62852e-016 20   XYZ
    dof rx
    limits (-90.0 20.0)
  end
  begin
     id 6 
     name rhipjoint
     direction -0.631686 -0.693949 0.345555   
     length 2.2209  
     axis 0 0 0  XYZ 
  end
  begin
     id 7 
     name rfemur
     direction -0.34202 -0.939693 0   
     length 6.49542   
     axis 0 0 -20   XYZ
    dof rx ry rz
    limits (-160.0 20.0)
           (-70.0 70.0)
           (-70.0 60.0)
  end
  begin
     id 8 
     name rtibia
     direction -0.34202 -0.939693 0   
     length 7.21712   
     axis 0 0 -20   XYZ
    dof rx
    limits (-10.0 170.0)
 end
 begin
     id 9 
     name rfoot
     direction -0.0825378 -0.226771 0.970444   
     length 1.89724  
     axis -90 -7.62852e-016 -20   XYZ
    dof rx rz
    limits (-45.0 90.0)
           (-20.0 70.0)
  end
  begin
     id 10 
     name rtoes
     direction -1.53515e-011 -4.22016e-011 1   
     length 0.955868   
     axis -90 -7.62852e-016 -20   XYZ
    dof rx
    limits (-90.0 20.0)
  end
  begin
     id 11 
     name lowerback
     direction -0.0104711 0.984802 -0.173368   
     length 1.84931   
     axis 0 0 0   XYZ
    dof rx ry rz
    limits (-20.0 45.0)
           (-30.0 30.0)
           (-30.0 30.0)
  end
  begin
     id 12 
     name upperback
     direction -0.00286433 0.999996 -0.000382853   
     length 1.85768   
     axis 0 0 0   XYZ
    dof rx ry rz
    limits (-20.0 45.0)
           (-30.0 30.0)
           (-30.0 30.0)
  end
  begin
     id 13 
     name thorax
     direction 0.00167534 0.996793 0.0800069   
     length 1.92   
     axis 0 0 0   XYZ
    dof rx ry rz
    limits (-20.0 45.0)
           (-30.0 30.0)
           (-30.0 30.0)
  end
  begin
     id 14 
     name lowerneck
     direction -0.0672491 0.995415 0.068018   
     length 1.58923   
     axis 0 0 0   XYZ
    dof rx ry rz
    limits (-20.0 45.0)
           (-30.0 30.0)
           (-30.0 30.0)
  end
  begin
     id 15 
     name upperneck
     direction 0.0958019 0.982476 -0.159884   
     length 1.60189   
     axis 0 0 0   XYZ
    dof rx ry rz
    limits (-20.0 45.0)
           (-30.0 30.0)
           (-30.0 30.0)
  end
  begin
     id 16
     name head
     direction 0.032989 0.997338 -0.0650226  
     length 1.61681  
     axis 0 0 0   XYZ
    dof rx ry rz
    limits (-20.0 45.0)
           (-30.0 30.0)
           (-30.0 30.0)
  end
  begin
     id 17 
     name lclavicle
     direction 0.954279 0.298875 -0.00496069  
     length 2.99449  
     axis 0 0 0   XYZ
    dof ry rz
    limits (-20.0 10.0)
           (0.0 20.0)
  end
  begin
     id 18 
     name lhumerus
     direction 1 -4.48985e-011 -4.2057e-027   
     length 4.79185   
     axis 180 -30 -90   XYZ
    dof rx ry rz
    limits (-60.0 90.0)
           (-90.0 90.0)
           (-90.0 90.0)
  end
  begin
     id 19
     name lradius
     direction 1 -4.48945e-011 1.15441e-028   
     length 2.65553   
     axis 180 -30 -90   XYZ
    dof rx
    limits (-10.0 170.0)
  end
  begin
     id 20
     name lwrist
     direction 1 -4.4899e-011 4.8894e-028   
     length 1.32777   
     axis -2.56392e-016 90 90   XYZ
    dof ry
    limits (-180.0 0.0)
 end
  begin
     id 21 
     name lhand
     direction 1 -4.48908e-011 9.7788e-028   
     length 0.743904   
     axis -6.23971e-016 90 90   XYZ
    dof rx rz
    limits (-90.0 90.0)
           (-45.0 45.0)
  end
  begin
     id 22 
     name lfingers
     direction 1 -4.49068e-011 1.95576e-027   
     length 0.599754   
     axis -1.24794e-015 90 90   XYZ
    dof rx
    limits (0.0 90.0)
  end
  begin
     id 23
     name lthumb
     direction 0.707107 -6.34883e-011 0.707107   
     length 0.861131   
     axis -90 45 2.85299e-015   XYZ
    dof rx rz
    limits (-45.0 45.0)
           (-45.0 45.0)
  end
  begin
     id 24 
     name rclavicle
     direction -0.957921 0.286916 0.00811568   
     length 3.06817  
     axis 0 0 0   XYZ 
    dof ry rz
    limits (-10.0 20.0)
           (-20.0 0.0)
  end
  begin
     id 25 
     name rhumerus
     direction -1 -4.48971e-011 -3.07942e-027  
     length 4.77254   
     axis 180 30 90   XYZ
    dof rx ry rz
    limits (-90.0 60.0)
           (-90.0 90.0)
           (-90.0 90.0)
  end
  begin
     id 26 
     name rradius
     direction -1 -4.48957e-011 -9.6815e-028   
     length 2.75995   
     axis 180 30 90   XYZ
    dof rx
    limits (-10.0 170.0)
  end
  begin
     id 27 
     name rwrist
     direction -1 -4.48979e-011 4.8894e-028   
     length 1.37997   
     axis -2.56392e-016 -90 -90   XYZ
    dof ry
    limits (-180.0 0.0)
  end
  begin
     id 28
     name rhand
     direction -1 -4.48906e-011 9.7788e-028   
     length 0.701619   
     axis -6.23971e-016 -90 -90   XYZ
    dof rx rz
    limits (-90.0 90.0)
           (-45.0 45.0)
  end
  begin
     id 29
     name rfingers
     direction -1 -4.49018e-011 1.95576e-027   
     length 0.565663   
     axis -1.24794e-015 -90 -90   XYZ
    dof rx
    limits (0.0 90.0)
  end
  begin
     id 30
     name rthumb
     direction -0.707107 -6.34881e-011 0.707107   
     length 0.812183   
     axis -90 -45 -2.85299e-015   XYZ
    dof rx rz
    limits (-45.0 45.0)
           (-45.0 45.0)
  end
:hierarchy
  begin
    root lhipjoint rhipjoint lowerback
    lhipjoint lfemur
    lfemur ltibia
    ltibia lfoot
    lfoot ltoes
    rhipjoint rfemur
    rfemur rtibia
    rtibia rfoot
    rfoot rtoes
    lowerback upperback
    upperback thorax
    thorax lowerneck lclavicle rclavicle
    lowerneck upperneck
    upperneck head
    lclavicle lhumerus
    lhumerus lradius
    lradius lwrist
    lwrist lhand lthumb
    lhand lfingers
    rclavicle rhumerus
    rhumerus rradius
    rradius rwrist
    rwrist rhand rthumb
    rhand rfingers
  end

#!OML:ASF F:\VICON\USERDATA\INSTALL\rory3\rory3.ASF
:FULLY-SPECIFIED
:DEGREES
114
root 0.279222 15.8007 -1.92079 17.9297 -1.0768 0.341149
lowerback 31.9208 0.970822 -1.64342
upperback 9.64201 0.685309 -0.232766
thorax -6.51033 0.318054 0.443695
lowerneck -9.03309 -9.19294 -13.1988
upperneck 9.09452 -12.4999 15.901
head 6.1077 -5.67798 6.07363
rclavicle 5.30507e-015 1.82633e-015
rhumerus -14.7454 9.35433 -83.6644
rradius 50.0318
rwrist -2.9575
rhand -14.6998 12.667
rfingers 7.12502
rthumb 11.4543 -17.0001
lclavicle 5.30507e-015 1.82633e-015
lhumerus -14.6362 -17.284 90.1892
lradius 58.3346
lwrist 22.1747
lhand -13.8732 11.3451
lfingers 7.12502
lthumb 12.2514 40.9662
rfemur -40.6023 7.79025 11.6873
rtibia 37.2749
rfoot -10.7771 -10.2213
rtoes -14.7738
lfemur -38.1888 -4.36124 -14.1808
ltibia 32.4346
lfoot -7.98434 4.10328
ltoes -14.8453
115
root 0.279284 15.8006 -1.9177 18.0031 -1.07983 0.38058
lowerback 31.8564 0.96742 -1.67657
upperback 9.64924 0.671996 -0.242344
thorax -6.47269 0.311661 0.457494
lowerneck -8.97784 -9.16867 -13.1889
upperneck 8.97863 -12.4622 15.9116
head 6.05668 -5.66407 6.08217
rclavicle -3.75206e-015 1.92573e-015
rhumerus -14.6873 9.34626 -83.6397
rradius 50.0735
rwrist -2.95634
rhand -14.5645 12.6222
rfingers 7.12502
rthumb 11.5847 -17.0376
lclavicle -3.75206e-015 1.92573e-015
lhumerus -14.5808 -17.0335 90.1072
lradius 58.3544
lwrist 21.679
lhand -14.0479 11.0042
lfingers 7.12502
lthumb 12.083 40.6354
rfemur -40.6801 7.75489 11.6353
rtibia 37.2802
rfoot -10.8162 -10.1935
rtoes -14.0788
lfemur -38.2709 -4.35772 -14.2246
ltibia 32.4458
lfoot -8.01961 4.13328
ltoes -14.7884
116
root 0.278386 15.8003 -1.91379 18.0386 -1.07993 0.426622
lowerback 31.8553 0.973687 -1.72099
upperback 9.64027 0.666038 -0.249745
thorax -6.4825 0.309009 0.476962
lowerneck -8.89241 -9.14854 -13.2219
upperneck 8.90537 -12.437 15.958
head 6.02092 -5.65598 6.10913
rclavicle -7.82715e-016 -8.07563e-017
rhumerus -14.6857 9.26687 -83.6323
rradius 50.0998
rwrist -2.91693
rhand -14.4295 12.6825
rfingers 7.12502
rthumb 11.7149 -16.97
lclavicle -7.82715e-016 -8.07563e-017
lhumerus -14.5828 -16.8891 90.0623
lradius 58.3367
lwrist 21.4035
lhand -14.3927 10.7037
lfingers 7.12502
lthumb 11.7504 40.3541
rfemur -40.7225 7.72819 11.5882
rtibia 37.3014
rfoot -10.8256 -10.1984
rtoes -13.8204
lfemur -38.2824 -4.34358 -14.2796
ltibia 32.4318
lfoot -8.01719 4.08537
ltoes -14.9482
117
root 0.277633 15.8013 -1.91004 18.0402 -1.04715 0.449826
lowerback 31.9055 0.979316 -1.72793
upperback 9.62459 0.670781 -0.24203
thorax -6.5234 0.31161 0.487388
lowerneck -8.81404 -9.1444 -13.213
upperneck 8.83368 -12.4332 15.9645
head 5.98455 -5.65866 6.11311
rclavicle -4.79723e-015 5.48677e-015
rhumerus -14.7413 9.20893 -83.5964
rradius 50.1612
rwrist -2.90273
rhand -14.3925 12.6861
rfingers 7.12502
rthumb 11.7506 -16.9643
lclavicle -4.79723e-015 5.48677e-015
lhumerus -14.6837 -16.868 90.0606
lradius 58.3925
lwrist 21.3554
lhand -14.7927 10.7741
lfingers 7.12502
lthumb 11.3647 40.4462
rfemur -40.7189 7.68755 11.5812
rtibia 37.3415
rfoot -10.7869 -10.2091
rtoes -13.8433
lfemur -38.2526 -4.36879 -14.2988
ltibia 32.3988
lfoot -7.98643 4.04027
ltoes -14.8311
118
root 0.277038 15.8025 -1.90674 18.0535 -1.04235 0.507046
lowerback 31.9177 0.989004 -1.80715
upperback 9.61021 0.660642 -0.225769
thorax -6.54581 0.306759 0.554917
lowerneck -8.79311 -9.12968 -13.241
upperneck 8.82242 -12.4062 15.9362
head 5.973 -5.64916 6.11251
rclavicle 8.66577e-016 2.59546e-015
rhumerus -14.7778 9.24539 -83.5506
rradius 50.1955
rwrist -2.83617
rhand -14.4123 12.699
rfingers 7.12502
rthumb 11.7316 -16.9525
lclavicle 8.66577e-016 2.59546e-015
lhumerus -14.7958 -16.8214 90.0684
lradius 58.5147
lwrist 21.3552
lhand -14.4172 11.121
lfingers 7.12502
lthumb 11.7268 40.7728
rfemur -40.7329 7.63998 11.5375
rtibia 37.3849
rfoot -10.8016 -10.1829
rtoes -14.0516
lfemur -38.2389 -4.36978 -14.3651
ltibia 32.3551
lfoot -7.98733 4.04126
ltoes -14.9513
119
root 0.277152 15.803 -1.90365 18.056 -1.07365 0.537306
lowerback 31.9471 1.00284 -1.83138
upperback 9.59919 0.668318 -0.239323
thorax -6.57192 0.310641 0.550644
lowerneck -8.7937 -9.11831 -13.1855
upperneck 8.83913 -12.3883 15.8534
head 5.96589 -5.6426 6.07855
rclavicle 1.79372e-015 4.14652e-015
rhumerus -14.7855 9.25145 -83.5249
rradius 50.1726
rwrist -2.79502
rhand -14.4487 12.7844
rfingers 7.12502
rthumb 11.6964 -16.8691
lclavicle 1.79372e-015 4.14652e-015
lhumerus -14.8395 -16.789 90.0338
lradius 58.5467
lwrist 21.3855
lhand -14.0414 11.1796
lfingers 7.12502
lthumb 12.0892 40.8104
rfemur -40.7481 7.60576 11.5211
rtibia 37.423
rfoot -10.8138 -10.1275
rtoes -14.3462
lfemur -38.208 -4.343 -14.4108
ltibia 32.3101
lfoot -7.96276 4.03766
ltoes -14.9607
120
root 0.276723 15.8035 -1.90006 18.0806 -1.11874 0.558086
lowerback 31.95 1.03039 -1.84237
upperback 9.59618 0.696236 -0.265962
thorax -6.57704 0.324033 0.516971
lowerneck -8.82036 -9.12054 -13.1161
upperneck 8.84603 -12.3896 15.7872
head 5.96355 -5.64307 6.0444
rclavicle -1.79838e-015 1.45361e-015
rhumerus -14.7972 9.18095 -83.5217
rradius 50.1912
rwrist -2.80743
rhand -14.4373 12.7998
rfingers 7.12502
rthumb 11.7074 -16.8531
lclavicle -1.79838e-015 1.45361e-015
lhumerus -14.7907 -16.8556 89.9875
lradius 58.4667
lwrist 21.4462
lhand -14.1555 10.8688
lfingers 7.12502
lthumb 11.9791 40.5061
rfemur -40.7853 7.63098 11.483
rtibia 37.4469
rfoot -10.8628 -10.0827
rtoes -14.2085
lfemur -38.2035 -4.32659 -14.4355
ltibia 32.2842
lfoot -7.95364 4.04422
ltoes -14.7966
121
root 0.277361 15.804 -1.89587 18.1101 -1.15315 0.624031
lowerback 31.9438 1.0353 -1.8947
upperback 9.58963 0.684489 -0.29008
thorax -6.58146 0.318738 0.524417
lowerneck -8.88524 -9.11405 -13.0967
upperneck 8.87969 -12.3711 15.7181
head 5.97604 -5.6335 6.01846
rclavicle 4.55341e-015 2.41958e-015
rhumerus -14.8082 9.17959 -83.5254
rradius 50.2511
rwrist -2.83887
rhand -14.4252 12.7911
rfingers 7.12502
rthumb 11.7191 -16.8611
lclavicle 4.55341e-015 2.41958e-015
lhumerus -14.6368 -16.8293 89.9369
lradius 58.2337
lwrist 21.4069
lhand -14.2836 10.5344
lfingers 7.12502
lthumb 11.8556 40.1787
rfemur -40.817 7.601 11.4077
rtibia 37.4632
rfoot -10.8973 -10.061
rtoes -14.0532
lfemur -38.2043 -4.32565 -14.5185
ltibia 32.2826
lfoot -7.9667 4.0528
ltoes -14.9049
122
root 0.277333 15.8035 -1.89227 18.1445 -1.1264 0.6076
lowerback 31.9361 1.00651 -1.85287
upperback 9.58958 0.660549 -0.301257
thorax -6.5771 0.307721 0.496383
lowerneck -9.02905 -9.11743 -12.9978
upperneck 8.95577 -12.3665 15.5969
head 6.00857 -5.62652 5.95791
rclavicle 8.46854e-015 -6.91864e-016
rhumerus -14.765 9.13993 -83.5407
rradius 50.2609
rwrist -2.81352
rhand -14.3096 12.7764
rfingers 7.12502
rthumb 11.8306 -16.8694
lclavicle 8.46854e-015 -6.91864e-016
lhumerus -14.4808 -16.8395 89.8467
lradius 58.0298
lwrist 21.4117
lhand -14.3668 10.4094
lfingers 7.12502
lthumb 11.7754 40.0584
rfemur -40.8418 7.55951 11.4363
rtibia 37.4631
rfoot -10.8915 -10.0688
rtoes -14.1316
lfemur -38.2397 -4.34188 -14.4921
ltibia 32.3016
lfoot -7.95197 4.07138
ltoes -14.8017
